<svg xmlns="http://www.w3.org/2000/svg" width="1280" height="720"><rect width="1280" height="720" x="0" y="0" fill="#ffffff" id="background"/><g transform="translate(640,360)" id="viz"><path fill="#cccccc" display="" d="M0.4999993197281707,-232.33279531408832A232.33333333333334,232.33333333333334,0,0,1,88.18007809447556,214.948951160572L44.51000779958307,107.8423400932684A116.66666666666667,116.66666666666667,0,0,0,0.49999931972816686,-116.66559523609084Z"><title>Banned pending investigation</title></path><path fill="#cccccc" display="" d="M87.25408986901618,215.32649994579728A232.33333333333334,232.33333333333334,0,0,1,-173.72028506346214,-154.27261693264697L-87.39909354411473,-77.28201316463097A116.66666666666667,116.66666666666667,0,0,0,43.58401957412368,108.21988887849366Z"><title>Banned</title></path><path fill="#cccccc" display="" d="M-173.05466422222952,-155.01890519775054A232.33333333333334,232.33333333333334,0,0,1,-0.4999993197281991,-232.33279531408832L-0.499999319728207,-116.66559523609084A116.66666666666667,116.66666666666667,0,0,0,-86.7334727028821,-78.02830142973457Z"><title>Banned by restriction</title></path><path fill="rgb(196, 44, 74)" display="" d="M0.4999993197282109,-348.9996418346017A349,349,0,0,1,348.3474286003988,-21.332346038118786L232.88685145710681,-14.427711628664731A233.33333333333334,233.33333333333334,0,0,0,0.49999931972819195,-233.33279761989039Z"><title>Florida</title></path><path fill="rgb(248, 142, 83)" display="" d="M348.4071226731668,-20.334130682300767A349,349,0,0,1,228.16669794035823,264.0851339075968L152.67233445916878,176.45283430773267A233.33333333333334,233.33333333333334,0,0,0,232.94654552987484,-13.429496272846709Z"><title>Iowa</title></path><path fill="rgb(79, 99, 171)" display="" d="M227.4090721836667,264.73782103916295A349,349,0,0,1,186.47812079995364,295.003238054971L124.81500286913037,197.14375339640722A233.33333333333334,233.33333333333334,0,0,0,151.9147087024772,177.10552143929885Z"><title>Wisconsin</title></path><path fill="rgb(75, 160, 177)" display="" d="M185.6320758319176,295.5363470409912A349,349,0,0,1,169.58588142639232,305.02725914388964L113.5260045021738,203.85360125888593A233.33333333333334,233.33333333333334,0,0,0,123.96895790109436,197.6768623824274Z"><title>Texas</title></path><path fill="rgb(158, 1, 66)" display="" d="M168.7111837468566,305.51192526435756A349,349,0,0,1,160.1596533839595,310.0804499286112L107.22624724437982,207.23652271337593A233.33333333333334,233.33333333333334,0,0,0,112.65130682263809,204.33826737935385Z"><title>Alaska</title></path><path fill="rgb(212, 63, 75)" display="" d="M159.2705153773871,310.53808612056184A349,349,0,0,1,150.97672571495443,314.6538229425974L101.08892712541913,210.2985336541274A233.33333333333334,233.33333333333334,0,0,0,106.33710923780745,207.6941589053266Z"><title>Georgia</title></path><path fill="rgb(254, 218, 137)" display="" d="M150.07452121532415,315.0851283097811A349,349,0,0,1,143.65544208694786,318.0630660086197L96.19570611878181,212.58135047259768A233.33333333333334,233.33333333333334,0,0,0,100.18672262578887,210.7298390213111Z"><title>Maryland</title></path><path fill="rgb(67, 140, 180)" display="" d="M142.7434990600616,318.47337954072424A349,349,0,0,1,140.26557844806527,319.57247613433424L93.9300389090718,213.59211650944587A233.33333333333334,233.33333333333334,0,0,0,95.28376309189557,212.99166400470224Z"><title>Utah</title></path><path fill="rgb(68, 120, 178)" display="" d="M139.3493243896658,319.9730704170957A349,349,0,0,1,136.85985791063953,321.04575887664294L91.65375299223766,214.57873614802176A233.33333333333334,233.33333333333334,0,0,0,93.01378485067237,213.9927107922073Z"><title>Virginia</title></path><path fill="rgb(137, 207, 165)" display="" d="M135.93939640243102,321.43658862323485A349,349,0,0,1,133.8419491736159,322.31557927194154L89.63665240837037,215.4291414583121A233.33333333333334,233.33333333333334,0,0,0,90.73329148402917,214.96956589461368Z"><title>Pennsylvania</title></path><path fill="rgb(160, 217, 163)" display="" d="M132.9178616088894,322.69775652353104A349,349,0,0,1,132.63147237146373,322.81557046799594L88.77008217791986,215.787666363418Z"><title>Oregon</title></path><path fill="rgb(253, 183, 107)" display="" d="M132.06783348872,323.0465714995219L88.29750089981279,215.98147091658583Z"><title>Louisiana</title></path><path fill="rgb(114, 195, 167)" display="" d="M131.86576093874947,323.12910901378814L88.16239986353833,216.03665359088032Z"><title>South Carolina</title></path><path fill="rgb(248, 142, 83)" display="" d="M131.30157597742598,323.35877310789675A349,349,0,0,1,-289.0895517704113,195.52041084547335L-193.18570698579506,130.85765954212613A233.33333333333334,233.33333333333334,0,0,0,87.63164003846768,216.25249156625426Z"><title>Iowa</title></path><path fill="rgb(196, 44, 74)" display="" d="M-289.6485941110739,194.69127337782336A349,349,0,0,1,-346.10143210993675,-44.88650901385462L-231.4166724194689,-29.845739574429583A233.33333333333334,233.33333333333334,0,0,0,-193.74474932645762,130.0285220744762Z"><title>Florida</title></path><path fill="rgb(75, 160, 177)" display="" d="M-345.97139701580136,-45.87801703359416A349,349,0,0,1,-321.39406183661487,-136.03990964478828L-214.941181200726,-90.80051249018983A233.33333333333334,233.33333333333334,0,0,0,-231.28663732533352,-30.837247594168993Z"><title>Texas</title></path><path fill="rgb(68, 120, 178)" display="" d="M-321.00294426172496,-136.96024888741945A349,349,0,0,1,-311.8717950288575,-156.64285322183807L-208.5845979675793,-104.57968222913932A233.33333333333334,233.33333333333334,0,0,0,-214.55006362583617,-91.72085173282085Z"><title>Virginia</title></path><path fill="rgb(251, 163, 94)" display="" d="M-311.42168246192483,-157.53582352145835A349,349,0,0,1,-301.47130034831093,-175.8296194226061L-201.6401795988888,-117.41244574478597A233.33333333333334,233.33333333333334,0,0,0,-208.13448540064672,-105.47265252875948Z"><title>Kentucky</title></path><path fill="rgb(79, 99, 171)" display="" d="M-300.9662541996474,-176.69271018645122A349,349,0,0,1,-293.72290698039444,-188.48833893635583L-196.46579478488687,-125.87944996697104A233.33333333333334,233.33333333333334,0,0,0,-201.1351334502253,-118.27553650863096Z"><title>Wisconsin</title></path><path fill="rgb(114, 195, 167)" display="" d="M-293.1816213231923,-189.32917608837866A349,349,0,0,1,-286.69364090024624,-199.01697482215096L-191.771190329894,-132.92198841388137A233.33333333333334,233.33333333333334,0,0,0,-195.9245091276848,-126.72028711899374Z"><title>South Carolina</title></path><path fill="rgb(204, 234, 159)" display="" d="M-286.12221615937176,-199.8376276381646A349,349,0,0,1,-280.07055048741114,-208.23421128546215L-187.34752279293667,-139.08756287962817A233.33333333333334,233.33333333333334,0,0,0,-191.19976558901962,-133.74264122989493Z"><title>North Carolina</title></path><path fill="rgb(212, 63, 75)" display="" d="M-279.4727425779946,-209.03584897317003A349,349,0,0,1,-275.31137715658406,-214.4869357516796L-184.16861921626116,-143.2702486227348A233.33333333333334,233.33333333333334,0,0,0,-186.74971488352023,-139.88920056733596Z"><title>Georgia</title></path><path fill="rgb(92, 179, 172)" display="" d="M-274.69567271060356,-215.27491120441553A349,349,0,0,1,-270.96375650040727,-219.95372845939212L-181.26449700119937,-146.92728327763578A233.33333333333334,233.33333333333334,0,0,0,-183.55291477028072,-144.05822407547066Z"><title>Tennessee</title></path><path fill="rgb(254, 218, 137)" display="" d="M-270.3324057765081,-220.72922413465187A349,349,0,0,1,-268.4704104125066,-222.99022115989806L-179.59894563986524,-148.95859548711238A233.33333333333334,233.33333333333334,0,0,0,-180.63314627730026,-147.70277895289544Z"><title>Maryland</title></path><path fill="rgb(67, 140, 180)" display="" d="M-267.8303693925225,-223.75856012913772A349,349,0,0,1,-266.3666164213083,-225.4990591028344L-178.1935892005979,-150.6369450442122A233.33333333333334,233.33333333333334,0,0,0,-178.95890461988117,-149.72693445635198Z"><title>Utah</title></path><path fill="rgb(225, 82, 74)" display="" d="M-265.71939540725106,-226.26135972455606A349,349,0,0,1,-264.80892362867314,-227.32627205543926L-177.15301966020013,-151.85931670370837A233.33333333333334,233.33333333333334,0,0,0,-177.5463681865407,-151.3992456659338Z"><title>Idaho</title></path><path fill="rgb(158, 1, 66)" display="" d="M-264.15647345431233,-228.08410188389104A349,349,0,0,1,-263.8111339345002,-228.48344712953102L-176.48647014937782,-152.6334507853938A233.33333333333334,233.33333333333334,0,0,0,-176.50056948583943,-152.61714653216004Z"><title>Alaska</title></path><path fill="rgb(221, 241, 160)" display="" d="M-263.15537217613405,-229.23841321829198A349,349,0,0,1,-263.0953299900311,-229.30732072360155L-175.91952945285985,-153.28654083620265Z"><title>New York</title></path><path fill="rgb(245, 250, 173)" display="" d="M-262.55094344063895,-229.9304288223514L-175.53549227167838,-153.7261701773123Z"><title>Montana</title></path><path fill="rgb(183, 226, 161)" display="" d="M-262.11905742956037,-230.42265455514314L-175.24674326713685,-154.0552609251196Z"><title>Ohio</title></path><path fill="rgb(137, 207, 165)" display="" d="M-261.68624860406936,-230.9140690636437L-174.95737729020877,-154.38380930711614Z"><title>Pennsylvania</title></path><path fill="rgb(177, 23, 70)" display="" d="M-261.32487075435887,-231.3229602205921L-174.71576841265636,-154.65718448368148Z"><title>California</title></path><path fill="rgb(253, 202, 121)" display="" d="M-261.03530842288546,-231.6496659971023L-174.52217373067796,-154.87561241449055Z"><title>Maine</title></path><path fill="rgb(236, 100, 73)" display="" d="M-260.8178686080676,-231.89445749035224L-174.37679849632028,-155.0392743488506Z"><title>Illinois</title></path><path fill="rgb(235, 247, 166)" display="" d="M-260.672781187248,-232.05753844274295L-174.27979640026132,-155.14830650422167Z"><title>New Jersey</title></path><path fill="rgb(160, 217, 163)" display="" d="M-260.527591797217,-232.2205286195488L-174.1827261299445,-155.2572779691348Z"><title>Oregon</title></path><path fill="rgb(196, 44, 74)" display="" d="M-260.1218811658793,-232.67489537705643A349,349,0,0,1,-78.19277524931827,-340.12775526088666L-52.43936790843319,-227.3643708627375A233.33333333333334,233.33333333333334,0,0,0,-173.80095522348765,-155.68452847938258Z"><title>Florida</title></path><path fill="rgb(79, 99, 171)" display="" d="M-77.21787849524651,-340.3504065528545A349,349,0,0,1,-56.34996821318103,-344.4207907231698L-37.837814085866306,-230.24496578567764A233.33333333333334,233.33333333333334,0,0,0,-51.464471154361355,-227.58702215470538Z"><title>Wisconsin</title></path><path fill="rgb(253, 202, 121)" display="" d="M-55.36286019297466,-344.5808377017694A349,349,0,0,1,-38.83651541844479,-346.8324164061844L-26.129872384142672,-231.86563827706956A233.33333333333334,233.33333333333334,0,0,0,-36.850706065659864,-230.4050127642773Z"><title>Maine</title></path><path fill="rgb(251, 248, 176)" display="" d="M-37.8425692060074,-346.9422717915598A349,349,0,0,1,-26.44982459993851,-347.9962740872846L-17.848971914021078,-232.64964785285392A233.33333333333334,233.33333333333334,0,0,0,-25.1359261717052,-231.97549366244496Z"><title>Missouri</title></path><path fill="rgb(94, 79, 162)" display="" d="M-25.452594407626894,-348.07063282891426A349,349,0,0,1,-17.300395642348125,-348.5709344030541L-11.732149591631877,-233.03819667686244A233.33333333333334,233.33333333333334,0,0,0,-16.851741721709384,-232.7240065944836Z"><title>Wyoming</title></path><path fill="rgb(248, 142, 83)" display="" d="M-16.301556421625545,-348.61907471943147A349,349,0,0,1,-13.15706777706864,-348.75190546792663L-8.962102975333291,-233.16115704530196A233.33333333333334,233.33333333333334,0,0,0,-10.733310370909217,-233.08633699323985Z"><title>Iowa</title></path><path fill="rgb(75, 160, 177)" display="" d="M-12.157727024399714,-348.78817307013173A349,349,0,0,1,-10.102867613819281,-348.8537402207086L-6.920184207884083,-233.23069158018933A233.33333333333334,233.33333333333334,0,0,0,-7.962762222664284,-233.19742464750712Z"><title>Texas</title></path><path fill="rgb(160, 217, 163)" display="" d="M-9.103247609354664,-348.88125613589904A349,349,0,0,1,-7.702583780064751,-348.91498993753635L-5.315439403164647,-233.2727814135111A233.33333333333334,233.33333333333334,0,0,0,-5.920564203419386,-233.25820749537976Z"><title>Oregon</title></path><path fill="rgb(254, 218, 137)" display="" d="M-6.702798128671939,-348.93562801360116A349,349,0,0,1,-5.738438891169688,-348.95281961762726L-4.002275822414103,-233.299006068791A233.33333333333334,233.33333333333334,0,0,0,-4.315653751771754,-233.29341948957597Z"><title>Maryland</title></path><path fill="rgb(204, 234, 159)" display="" d="M-4.738552908440781,-348.9678296295146A349,349,0,0,1,-3.774112178352205,-348.9795926372561L-2.688985428517608,-233.3178385846433A233.33333333333334,233.33333333333334,0,0,0,-3.002389839685116,-233.31401608067827Z"><title>North Carolina</title></path><path fill="rgb(114, 195, 167)" display="" d="M-2.7741575459335186,-348.98897410936974A349,349,0,0,1,-2.6827639036799846,-348.98968864113607L-1.8241857915358446,-233.32620253765415Z"><title>South Carolina</title></path><path fill="rgb(137, 207, 165)" display="" d="M-1.9645013765761847,-348.99447092230764L-1.3134202135657396,-233.32963671978544Z"><title>Pennsylvania</title></path><path fill="rgb(92, 179, 172)" display="" d="M-1.5279487028425605,-348.99665524580814L-1.0215511862366689,-233.3310971079902Z"><title>Tennessee</title></path><path fill="rgb(225, 82, 74)" display="" d="M-1.2005325912278881,-348.9979351249766L-0.8026483417951498,-233.33195280561952Z"><title>Idaho</title></path><path fill="rgb(236, 100, 73)" display="" d="M-0.9822545786699777,-348.99861772783953L-0.6567127078022774,-233.33240917811622Z"><title>Illinois</title></path><path fill="rgb(243, 120, 76)" display="" d="M-0.7639761818772317,-348.99916381045034L-0.5107768169188751,-233.33277427632783Z"><title>Indiana</title></path><path fill="rgb(254, 232, 154)" display="" d="M-0.5456974862339115,-348.9995733725953L-0.36484072623088637,-233.33304810011145Z"><title>Massachusetts</title></path><path fill="rgb(253, 242, 168)" display="" d="M-0.3274185771268745,-348.9998464141143L-0.2189044928259906,-233.33323064936008Z"><title>Minnesota</title></path><path fill="rgb(221, 241, 160)" display="" d="M-0.1091395399405822,-348.99998293490046L-0.07296817379026509,-233.33332192400223Z"><title>New York</title></path></g><g id="labels" transform="translate(640,360)" text-anchor="middle"><text transform="rotate(90) translate(58.333333333333336,0) rotate(180)" style="opacity: 1;"><tspan x="0" y="4" style="font-family: Arial, sans-serif; font-size: 10px; fill: black; font-weight: normal; font-style: italic;"/></text><text transform="rotate(-11.090981485168228) translate(175,0) rotate(0)" style="opacity: 1;"><tspan x="0" y="4" style="font-family: Arial, sans-serif; font-size: 10px; fill: black; font-weight: normal; font-style: italic;">Banned pending investigation</tspan></text><text transform="rotate(144.77403941867408) translate(175,0) rotate(180)" style="opacity: 1;"><tspan x="0" y="4" style="font-family: Arial, sans-serif; font-size: 10px; fill: black; font-weight: normal; font-style: italic;">Banned</tspan></text><text transform="rotate(245.86502090384232) translate(175,0) rotate(180)" style="opacity: 1;"><tspan x="0" y="4" style="font-family: Arial, sans-serif; font-size: 10px; fill: black; font-weight: normal; font-style: italic;">Banned by restriction</tspan></text><text transform="rotate(-46.711128807485565) translate(291.6666666666667,0) rotate(0)" style="opacity: 1;"><tspan x="0" y="-2" style="font-family: Arial, sans-serif; font-size: 10px; fill: black; font-weight: bold;">Florida</tspan><tspan x="0" y="10" style="font-family: Arial, sans-serif; font-size: 10px; fill: black; font-weight: normal;">2416</tspan></text><text transform="rotate(22.916583714911425) translate(291.6666666666667,0) rotate(0)" style="opacity: 1;"><tspan x="0" y="-2" style="font-family: Arial, sans-serif; font-size: 10px; fill: black; font-weight: bold;">Iowa</tspan><tspan x="0" y="10" style="font-family: Arial, sans-serif; font-size: 10px; fill: black; font-weight: normal;">1470</tspan></text><text transform="rotate(53.519808879155875) translate(291.6666666666667,0) rotate(0)" style="opacity: 1;"><tspan x="0" y="-2" style="font-family: Arial, sans-serif; font-size: 10px; fill: black; font-weight: bold;">Wisconsin</tspan><tspan x="0" y="10" style="font-family: Arial, sans-serif; font-size: 10px; fill: black; font-weight: normal;">238</tspan></text><text transform="rotate(59.39677483575554) translate(291.6666666666667,0) rotate(0)" style="opacity: 0;"><tspan x="0" y="-2" style="font-family: Arial, sans-serif; font-size: 10px; fill: black; font-weight: bold;">Texas</tspan><tspan x="0" y="10" style="font-family: Arial, sans-serif; font-size: 10px; fill: black; font-weight: normal;">90</tspan></text><text transform="rotate(61.887318335656005) translate(291.6666666666667,0) rotate(0)" style="opacity: 0;"><tspan x="0" y="-2" style="font-family: Arial, sans-serif; font-size: 10px; fill: black; font-weight: bold;">Alaska</tspan><tspan x="0" y="10" style="font-family: Arial, sans-serif; font-size: 10px; fill: black; font-weight: normal;">49</tspan></text><text transform="rotate(63.607405932709554) translate(291.6666666666667,0) rotate(0)" style="opacity: 1;"><tspan x="0" y="-2" style="font-family: Arial, sans-serif; font-size: 10px; fill: black; font-weight: bold;">Georgia</tspan><tspan x="0" y="10" style="font-family: Arial, sans-serif; font-size: 10px; fill: black; font-weight: normal;">47</tspan></text><text transform="rotate(65.1124825801314) translate(291.6666666666667,0) rotate(0)" style="opacity: 0;"><tspan x="0" y="-2" style="font-family: Arial, sans-serif; font-size: 10px; fill: black; font-weight: bold;">Maryland</tspan><tspan x="0" y="10" style="font-family: Arial, sans-serif; font-size: 10px; fill: black; font-weight: normal;">37</tspan></text><text transform="rotate(66.08003185347403) translate(291.6666666666667,0) rotate(0)" style="opacity: 0;"><tspan x="0" y="-2" style="font-family: Arial, sans-serif; font-size: 10px; fill: black; font-weight: bold;">Utah</tspan><tspan x="0" y="10" style="font-family: Arial, sans-serif; font-size: 10px; fill: black; font-weight: normal;">17</tspan></text><text transform="rotate(66.6892295440972) translate(291.6666666666667,0) rotate(0)" style="opacity: 0;"><tspan x="0" y="-2" style="font-family: Arial, sans-serif; font-size: 10px; fill: black; font-weight: bold;">Virginia</tspan><tspan x="0" y="10" style="font-family: Arial, sans-serif; font-size: 10px; fill: black; font-weight: normal;">17</tspan></text><text transform="rotate(67.26259207644839) translate(291.6666666666667,0) rotate(0)" style="opacity: 0;"><tspan x="0" y="-2" style="font-family: Arial, sans-serif; font-size: 10px; fill: black; font-weight: bold;">Pennsylvania</tspan><tspan x="0" y="10" style="font-family: Arial, sans-serif; font-size: 10px; fill: black; font-weight: normal;">15</tspan></text><text transform="rotate(67.63886123830383) translate(291.6666666666667,0) rotate(0)" style="opacity: 0;"><tspan x="0" y="-2" style="font-family: Arial, sans-serif; font-size: 10px; fill: black; font-weight: bold;">Oregon</tspan><tspan x="0" y="10" style="font-family: Arial, sans-serif; font-size: 10px; fill: black; font-weight: normal;">6</tspan></text><text transform="rotate(67.76428429225567) translate(291.6666666666667,0) rotate(0)" style="opacity: 0;"><tspan x="0" y="-2" style="font-family: Arial, sans-serif; font-size: 10px; fill: black; font-weight: bold;">Louisiana</tspan><tspan x="0" y="10" style="font-family: Arial, sans-serif; font-size: 10px; fill: black; font-weight: normal;">1</tspan></text><text transform="rotate(67.8001194505276) translate(291.6666666666667,0) rotate(0)" style="opacity: 0;"><tspan x="0" y="-2" style="font-family: Arial, sans-serif; font-size: 10px; fill: black; font-weight: bold;">South Carolina</tspan><tspan x="0" y="10" style="font-family: Arial, sans-serif; font-size: 10px; fill: black; font-weight: normal;">1</tspan></text><text transform="rotate(106.91419470435994) translate(291.6666666666667,0) rotate(180)" style="opacity: 1;"><tspan x="0" y="-2" style="font-family: Arial, sans-serif; font-size: 10px; fill: black; font-weight: bold;">Iowa</tspan><tspan x="0" y="10" style="font-family: Arial, sans-serif; font-size: 10px; fill: black; font-weight: normal;">2182</tspan></text><text transform="rotate(166.74099143937877) translate(291.6666666666667,0) rotate(180)" style="opacity: 1;"><tspan x="0" y="-2" style="font-family: Arial, sans-serif; font-size: 10px; fill: black; font-weight: bold;">Florida</tspan><tspan x="0" y="10" style="font-family: Arial, sans-serif; font-size: 10px; fill: black; font-weight: normal;">1157</tspan></text><text transform="rotate(195.2478598447143) translate(291.6666666666667,0) rotate(180)" style="opacity: 1;"><tspan x="0" y="-2" style="font-family: Arial, sans-serif; font-size: 10px; fill: black; font-weight: bold;">Texas</tspan><tspan x="0" y="10" style="font-family: Arial, sans-serif; font-size: 10px; fill: black; font-weight: normal;">434</tspan></text><text transform="rotate(204.88751741986863) translate(291.6666666666667,0) rotate(180)" style="opacity: 1;"><tspan x="0" y="-2" style="font-family: Arial, sans-serif; font-size: 10px; fill: black; font-weight: bold;">Virginia</tspan><tspan x="0" y="10" style="font-family: Arial, sans-serif; font-size: 10px; fill: black; font-weight: normal;">104</tspan></text><text transform="rotate(208.5427035636074) translate(291.6666666666667,0) rotate(180)" style="opacity: 0;"><tspan x="0" y="-2" style="font-family: Arial, sans-serif; font-size: 10px; fill: black; font-weight: bold;">Kentucky</tspan><tspan x="0" y="10" style="font-family: Arial, sans-serif; font-size: 10px; fill: black; font-weight: normal;">100</tspan></text><text transform="rotate(211.55285685845104) translate(291.6666666666667,0) rotate(180)" style="opacity: 0;"><tspan x="0" y="-2" style="font-family: Arial, sans-serif; font-size: 10px; fill: black; font-weight: bold;">Wisconsin</tspan><tspan x="0" y="10" style="font-family: Arial, sans-serif; font-size: 10px; fill: black; font-weight: normal;">68</tspan></text><text transform="rotate(213.8104718295839) translate(291.6666666666667,0) rotate(180)" style="opacity: 0;"><tspan x="0" y="-2" style="font-family: Arial, sans-serif; font-size: 10px; fill: black; font-weight: bold;">South Carolina</tspan><tspan x="0" y="10" style="font-family: Arial, sans-serif; font-size: 10px; fill: black; font-weight: normal;">58</tspan></text><text transform="rotate(215.78140553454108) translate(291.6666666666667,0) rotate(180)" style="opacity: 0;"><tspan x="0" y="-2" style="font-family: Arial, sans-serif; font-size: 10px; fill: black; font-weight: bold;">North Carolina</tspan><tspan x="0" y="10" style="font-family: Arial, sans-serif; font-size: 10px; fill: black; font-weight: normal;">52</tspan></text><text transform="rotate(217.3581524985068) translate(291.6666666666667,0) rotate(180)" style="opacity: 1;"><tspan x="0" y="-2" style="font-family: Arial, sans-serif; font-size: 10px; fill: black; font-weight: bold;">Georgia</tspan><tspan x="0" y="10" style="font-family: Arial, sans-serif; font-size: 10px; fill: black; font-weight: normal;">36</tspan></text><text transform="rotate(218.5765478797531) translate(291.6666666666667,0) rotate(180)" style="opacity: 0;"><tspan x="0" y="-2" style="font-family: Arial, sans-serif; font-size: 10px; fill: black; font-weight: bold;">Tennessee</tspan><tspan x="0" y="10" style="font-family: Arial, sans-serif; font-size: 10px; fill: black; font-weight: normal;">32</tspan></text><text transform="rotate(219.47242683655185) translate(291.6666666666667,0) rotate(180)" style="opacity: 0;"><tspan x="0" y="-2" style="font-family: Arial, sans-serif; font-size: 10px; fill: black; font-weight: bold;">Maryland</tspan><tspan x="0" y="10" style="font-family: Arial, sans-serif; font-size: 10px; fill: black; font-weight: normal;">18</tspan></text><text transform="rotate(220.063706948039) translate(291.6666666666667,0) rotate(180)" style="opacity: 0;"><tspan x="0" y="-2" style="font-family: Arial, sans-serif; font-size: 10px; fill: black; font-weight: bold;">Utah</tspan><tspan x="0" y="10" style="font-family: Arial, sans-serif; font-size: 10px; fill: black; font-weight: normal;">15</tspan></text><text transform="rotate(220.5295640055743) translate(291.6666666666667,0) rotate(180)" style="opacity: 0;"><tspan x="0" y="-2" style="font-family: Arial, sans-serif; font-size: 10px; fill: black; font-weight: bold;">Idaho</tspan><tspan x="0" y="10" style="font-family: Arial, sans-serif; font-size: 10px; fill: black; font-weight: normal;">11</tspan></text><text transform="rotate(220.85208043002183) translate(291.6666666666667,0) rotate(180)" style="opacity: 0;"><tspan x="0" y="-2" style="font-family: Arial, sans-serif; font-size: 10px; fill: black; font-weight: bold;">Alaska</tspan><tspan x="0" y="10" style="font-family: Arial, sans-serif; font-size: 10px; fill: black; font-weight: normal;">7</tspan></text><text transform="rotate(221.06709137965345) translate(291.6666666666667,0) rotate(180)" style="opacity: 0;"><tspan x="0" y="-2" style="font-family: Arial, sans-serif; font-size: 10px; fill: black; font-weight: bold;">New York</tspan><tspan x="0" y="10" style="font-family: Arial, sans-serif; font-size: 10px; fill: black; font-weight: normal;">5</tspan></text><text transform="rotate(221.21043201274125) translate(291.6666666666667,0) rotate(180)" style="opacity: 0;"><tspan x="0" y="-2" style="font-family: Arial, sans-serif; font-size: 10px; fill: black; font-weight: bold;">Montana</tspan><tspan x="0" y="10" style="font-family: Arial, sans-serif; font-size: 10px; fill: black; font-weight: normal;">3</tspan></text><text transform="rotate(221.31793748755712) translate(291.6666666666667,0) rotate(180)" style="opacity: 0;"><tspan x="0" y="-2" style="font-family: Arial, sans-serif; font-size: 10px; fill: black; font-weight: bold;">Ohio</tspan><tspan x="0" y="10" style="font-family: Arial, sans-serif; font-size: 10px; fill: black; font-weight: normal;">3</tspan></text><text transform="rotate(221.42544296237293) translate(291.6666666666667,0) rotate(180)" style="opacity: 0;"><tspan x="0" y="-2" style="font-family: Arial, sans-serif; font-size: 10px; fill: black; font-weight: bold;">Pennsylvania</tspan><tspan x="0" y="10" style="font-family: Arial, sans-serif; font-size: 10px; fill: black; font-weight: normal;">3</tspan></text><text transform="rotate(221.5150308580528) translate(291.6666666666667,0) rotate(180)" style="opacity: 0;"><tspan x="0" y="-2" style="font-family: Arial, sans-serif; font-size: 10px; fill: black; font-weight: bold;">California</tspan><tspan x="0" y="10" style="font-family: Arial, sans-serif; font-size: 10px; fill: black; font-weight: normal;">2</tspan></text><text transform="rotate(221.58670117459667) translate(291.6666666666667,0) rotate(180)" style="opacity: 0;"><tspan x="0" y="-2" style="font-family: Arial, sans-serif; font-size: 10px; fill: black; font-weight: bold;">Maine</tspan><tspan x="0" y="10" style="font-family: Arial, sans-serif; font-size: 10px; fill: black; font-weight: normal;">2</tspan></text><text transform="rotate(221.64045391200455) translate(291.6666666666667,0) rotate(180)" style="opacity: 0;"><tspan x="0" y="-2" style="font-family: Arial, sans-serif; font-size: 10px; fill: black; font-weight: bold;">Illinois</tspan><tspan x="0" y="10" style="font-family: Arial, sans-serif; font-size: 10px; fill: black; font-weight: normal;">1</tspan></text><text transform="rotate(221.67628907027654) translate(291.6666666666667,0) rotate(180)" style="opacity: 0;"><tspan x="0" y="-2" style="font-family: Arial, sans-serif; font-size: 10px; fill: black; font-weight: bold;">New Jersey</tspan><tspan x="0" y="10" style="font-family: Arial, sans-serif; font-size: 10px; fill: black; font-weight: normal;">1</tspan></text><text transform="rotate(221.71212422854842) translate(291.6666666666667,0) rotate(180)" style="opacity: 0;"><tspan x="0" y="-2" style="font-family: Arial, sans-serif; font-size: 10px; fill: black; font-weight: bold;">Oregon</tspan><tspan x="0" y="10" style="font-family: Arial, sans-serif; font-size: 10px; fill: black; font-weight: normal;">1</tspan></text><text transform="rotate(239.43260999402747) translate(291.6666666666667,0) rotate(180)" style="opacity: 1;"><tspan x="0" y="-2" style="font-family: Arial, sans-serif; font-size: 10px; fill: black; font-weight: bold;">Florida</tspan><tspan x="0" y="10" style="font-family: Arial, sans-serif; font-size: 10px; fill: black; font-weight: normal;">988</tspan></text><text transform="rotate(258.96277125223963) translate(291.6666666666667,0) rotate(180)" style="opacity: 1;"><tspan x="0" y="-2" style="font-family: Arial, sans-serif; font-size: 10px; fill: black; font-weight: bold;">Wisconsin</tspan><tspan x="0" y="10" style="font-family: Arial, sans-serif; font-size: 10px; fill: black; font-weight: normal;">102</tspan></text><text transform="rotate(262.24168823412305) translate(291.6666666666667,0) rotate(180)" style="opacity: 0;"><tspan x="0" y="-2" style="font-family: Arial, sans-serif; font-size: 10px; fill: black; font-weight: bold;">Maine</tspan><tspan x="0" y="10" style="font-family: Arial, sans-serif; font-size: 10px; fill: black; font-weight: normal;">81</tspan></text><text transform="rotate(264.7143141548875) translate(291.6666666666667,0) rotate(180)" style="opacity: 0;"><tspan x="0" y="-2" style="font-family: Arial, sans-serif; font-size: 10px; fill: black; font-weight: bold;">Missouri</tspan><tspan x="0" y="10" style="font-family: Arial, sans-serif; font-size: 10px; fill: black; font-weight: normal;">57</tspan></text><text transform="rotate(266.488154489349) translate(291.6666666666667,0) rotate(180)" style="opacity: 1;"><tspan x="0" y="-2" style="font-family: Arial, sans-serif; font-size: 10px; fill: black; font-weight: bold;">Wyoming</tspan><tspan x="0" y="10" style="font-family: Arial, sans-serif; font-size: 10px; fill: black; font-weight: normal;">42</tspan></text><text transform="rotate(267.58112681664346) translate(291.6666666666667,0) rotate(180)" style="opacity: 0;"><tspan x="0" y="-2" style="font-family: Arial, sans-serif; font-size: 10px; fill: black; font-weight: bold;">Iowa</tspan><tspan x="0" y="10" style="font-family: Arial, sans-serif; font-size: 10px; fill: black; font-weight: normal;">19</tspan></text><text transform="rotate(268.1724069281306) translate(291.6666666666667,0) rotate(180)" style="opacity: 0;"><tspan x="0" y="-2" style="font-family: Arial, sans-serif; font-size: 10px; fill: black; font-weight: bold;">Texas</tspan><tspan x="0" y="10" style="font-family: Arial, sans-serif; font-size: 10px; fill: black; font-weight: normal;">14</tspan></text><text transform="rotate(268.62034640653) translate(291.6666666666667,0) rotate(180)" style="opacity: 0;"><tspan x="0" y="-2" style="font-family: Arial, sans-serif; font-size: 10px; fill: black; font-weight: bold;">Oregon</tspan><tspan x="0" y="10" style="font-family: Arial, sans-serif; font-size: 10px; fill: black; font-weight: normal;">11</tspan></text><text transform="rotate(268.9786979892495) translate(291.6666666666667,0) rotate(180)" style="opacity: 0;"><tspan x="0" y="-2" style="font-family: Arial, sans-serif; font-size: 10px; fill: black; font-weight: bold;">Maryland</tspan><tspan x="0" y="10" style="font-family: Arial, sans-serif; font-size: 10px; fill: black; font-weight: normal;">9</tspan></text><text transform="rotate(269.3012144136969) translate(291.6666666666667,0) rotate(180)" style="opacity: 0;"><tspan x="0" y="-2" style="font-family: Arial, sans-serif; font-size: 10px; fill: black; font-weight: bold;">North Carolina</tspan><tspan x="0" y="10" style="font-family: Arial, sans-serif; font-size: 10px; fill: black; font-weight: normal;">9</tspan></text><text transform="rotate(269.55206052160054) translate(291.6666666666667,0) rotate(180)" style="opacity: 0;"><tspan x="0" y="-2" style="font-family: Arial, sans-serif; font-size: 10px; fill: black; font-weight: bold;">South Carolina</tspan><tspan x="0" y="10" style="font-family: Arial, sans-serif; font-size: 10px; fill: black; font-weight: normal;">5</tspan></text><text transform="rotate(269.67748357555246) translate(291.6666666666667,0) rotate(180)" style="opacity: 0;"><tspan x="0" y="-2" style="font-family: Arial, sans-serif; font-size: 10px; fill: black; font-weight: bold;">Pennsylvania</tspan><tspan x="0" y="10" style="font-family: Arial, sans-serif; font-size: 10px; fill: black; font-weight: normal;">2</tspan></text><text transform="rotate(269.7491538920963) translate(291.6666666666667,0) rotate(180)" style="opacity: 0;"><tspan x="0" y="-2" style="font-family: Arial, sans-serif; font-size: 10px; fill: black; font-weight: bold;">Tennessee</tspan><tspan x="0" y="10" style="font-family: Arial, sans-serif; font-size: 10px; fill: black; font-weight: normal;">2</tspan></text><text transform="rotate(269.8029066295042) translate(291.6666666666667,0) rotate(180)" style="opacity: 0;"><tspan x="0" y="-2" style="font-family: Arial, sans-serif; font-size: 10px; fill: black; font-weight: bold;">Idaho</tspan><tspan x="0" y="10" style="font-family: Arial, sans-serif; font-size: 10px; fill: black; font-weight: normal;">1</tspan></text><text transform="rotate(269.83874178777614) translate(291.6666666666667,0) rotate(180)" style="opacity: 0;"><tspan x="0" y="-2" style="font-family: Arial, sans-serif; font-size: 10px; fill: black; font-weight: bold;">Illinois</tspan><tspan x="0" y="10" style="font-family: Arial, sans-serif; font-size: 10px; fill: black; font-weight: normal;">1</tspan></text><text transform="rotate(269.874576946048) translate(291.6666666666667,0) rotate(180)" style="opacity: 0;"><tspan x="0" y="-2" style="font-family: Arial, sans-serif; font-size: 10px; fill: black; font-weight: bold;">Indiana</tspan><tspan x="0" y="10" style="font-family: Arial, sans-serif; font-size: 10px; fill: black; font-weight: normal;">1</tspan></text><text transform="rotate(269.91041210432) translate(291.6666666666667,0) rotate(180)" style="opacity: 0;"><tspan x="0" y="-2" style="font-family: Arial, sans-serif; font-size: 10px; fill: black; font-weight: bold;">Massachusetts</tspan><tspan x="0" y="10" style="font-family: Arial, sans-serif; font-size: 10px; fill: black; font-weight: normal;">1</tspan></text><text transform="rotate(269.94624726259184) translate(291.6666666666667,0) rotate(180)" style="opacity: 0;"><tspan x="0" y="-2" style="font-family: Arial, sans-serif; font-size: 10px; fill: black; font-weight: bold;">Minnesota</tspan><tspan x="0" y="10" style="font-family: Arial, sans-serif; font-size: 10px; fill: black; font-weight: normal;">1</tspan></text><text transform="rotate(269.9820824208639) translate(291.6666666666667,0) rotate(180)" style="opacity: 0;"><tspan x="0" y="-2" style="font-family: Arial, sans-serif; font-size: 10px; fill: black; font-weight: bold;">New York</tspan><tspan x="0" y="10" style="font-family: Arial, sans-serif; font-size: 10px; fill: black; font-weight: normal;">1</tspan></text></g></svg>