<?xml version="1.0" encoding="UTF-8"?>
<svg id="Layer_1" xmlns="http://www.w3.org/2000/svg" version="1.1" viewBox="0 0 2455.6 1366.5">
  <!-- Generator: Adobe Illustrator 29.2.1, SVG Export Plug-In . SVG Version: 2.1.0 Build 116)  -->
  <defs>
    <style>
      .st0, .st1, .st2, .st3, .st4, .st5, .st6, .st7, .st8, .st9, .st10, .st11, .st12, .st13, .st14, .st15, .st16, .st17, .st18, .st19, .st20, .st21, .st22, .st23, .st24, .st25, .st26, .st27, .st28, .st29, .st30, .st31, .st32 {
        isolation: isolate;
      }

      .st0, .st1, .st2, .st3, .st6, .st7, .st8, .st10, .st12, .st15, .st16, .st17, .st18, .st19, .st20, .st21, .st22, .st23, .st24, .st25, .st26, .st28, .st30, .st31, .st32 {
        font-family: AvenirNextCondensed-Regular, 'Avenir Next Condensed';
      }

      .st0, .st2, .st3, .st6, .st7, .st15, .st16, .st18, .st20, .st33, .st23, .st24, .st25, .st26, .st28, .st30, .st31 {
        fill: #fff;
      }

      .st0, .st8, .st10 {
        font-size: 31.6px;
      }

      .st1 {
        font-size: 20.4px;
      }

      .st1, .st12, .st17, .st21 {
        fill: #f3d0e4;
      }

      .st2 {
        font-size: 31.5px;
      }

      .st3 {
        font-size: 59.7px;
      }

      .st4 {
        opacity: .5;
      }

      .st34 {
        fill: #89a6a2;
      }

      .st5 {
        font-family: Roboto-Bold, Roboto;
        font-size: 42px;
        font-weight: 700;
      }

      .st6 {
        font-size: 6.5px;
      }

      .st7 {
        font-size: 15.2px;
      }

      .st8, .st19 {
        fill: #e3f0d4;
      }

      .st9 {
        letter-spacing: .2em;
      }

      .st9, .st35, .st11, .st36, .st13, .st27, .st29 {
        font-family: Roboto-Regular, Roboto;
      }

      .st9, .st11, .st13, .st29 {
        font-size: 23.1px;
      }

      .st10, .st22 {
        fill: #f7c3da;
      }

      .st35 {
        font-size: 28px;
      }

      .st11 {
        letter-spacing: .6em;
      }

      .st36 {
        font-size: 23px;
      }

      .st12 {
        font-size: 17.7px;
      }

      .st13 {
        letter-spacing: .3em;
      }

      .st15 {
        font-size: 54.2px;
      }

      .st16 {
        font-size: 14.1px;
      }

      .st37 {
        fill: #bea782;
      }

      .st17, .st18 {
        font-size: 27.1px;
      }

      .st19, .st22 {
        font-size: 49.2px;
      }

      .st20 {
        font-size: 5.9px;
      }

      .st38 {
        fill: #8b6f89;
      }

      .st21 {
        font-size: 43.2px;
      }

      .st39 {
        fill: #c2b2a0;
      }

      .st23 {
        font-size: 9.4px;
      }

      .st24 {
        font-size: 25.2px;
      }

      .st25 {
        font-size: 12.7px;
      }

      .st26 {
        font-size: 16.1px;
      }

      .st27 {
        font-size: 11px;
      }

      .st28 {
        font-size: 33.7px;
      }

      .st40 {
        fill: #a66b82;
      }

      .st30 {
        font-size: 18.1px;
      }

      .st31 {
        font-size: 10.8px;
      }

      .st32 {
        fill: #fffbeb;
        font-size: 21.6px;
      }
    </style>
  </defs>
  <path class="st33" d="M490.1,207.5h1491.3c3.9,0,7,3.1,7,7v1039.9c0,3.9-3.1,7-7,7H490.1c-3.9,0,2.9,0,2.9-3.8V217.7c0-3.9-6.8-10.2-2.9-10.2Z"/>
  <rect class="st40" x="508.2" y="232.6" width="704.6" height="528.4" rx="7" ry="7"/>
  <rect class="st40" x="508.2" y="767" width="377.9" height="468.2" rx="7" ry="7"/>
  <rect class="st40" x="892.1" y="767" width="320.7" height="468.2" rx="7" ry="7"/>
  <rect class="st34" x="1229.4" y="232.6" width="733.2" height="457.7" rx="7" ry="7"/>
  <rect class="st34" x="1229.4" y="694.8" width="724.2" height="311.7" rx="7" ry="7"/>
  <path class="st34" d="M1958,702.1c0-4.1,1-7.3,2.3-7.3s2.3,3.3,2.3,7.3v297c0,4.1-1,7.3-2.3,7.3s-2.3-3.3-2.3-7.3v-297Z"/>
  <rect class="st38" x="1229.4" y="1021.4" width="290.6" height="213.8" rx="7" ry="7"/>
  <rect class="st38" x="1525.9" y="1021.4" width="64.8" height="183.7" rx="7" ry="7"/>
  <rect class="st38" x="1525.9" y="1209.7" width="64.8" height="25.6" rx="7" ry="7"/>
  <rect class="st37" x="1607.3" y="1021.4" width="155" height="213.8" rx="7" ry="7"/>
  <rect class="st37" x="1768.3" y="1021.4" width="99.8" height="126.5" rx="7" ry="7"/>
  <rect class="st37" x="1768.3" y="1152.4" width="99.8" height="82.8" rx="7" ry="7"/>
  <rect class="st39" x="1884.2" y="1021.4" width="78.3" height="183.7" rx="7" ry="7"/>
  <rect class="st39" x="1884.2" y="1209.7" width="78.3" height="25.6" rx="7" ry="7"/>
  <g class="st14">
    <g class="st14">
      <g class="st14">
        <g class="st14">
          <g class="st14">
            <text class="st3" transform="translate(528.8 300.8)"><tspan x="0" y="0">FLORIDA</tspan></text>
          </g>
        </g>
      </g>
    </g>
  </g>
  <g class="st14">
    <g class="st14">
      <g class="st14">
        <g class="st14">
          <g class="st14">
            <text class="st3" transform="translate(528.8 300.8)"><tspan x="0" y="0">FLORIDA</tspan></text>
          </g>
        </g>
      </g>
    </g>
  </g>
  <g class="st14">
    <g class="st14">
      <g class="st14">
        <g class="st14">
          <g class="st14">
            <text class="st3" transform="translate(1255.2 301.9)"><tspan x="0" y="0">IOWA</tspan></text>
          </g>
        </g>
      </g>
    </g>
  </g>
  <g class="st14">
    <g class="st14">
      <g class="st14">
        <g class="st14">
          <g class="st14">
            <text class="st15" transform="translate(1246.4 1083.2)"><tspan x="0" y="0">TEXAS</tspan></text>
          </g>
        </g>
      </g>
    </g>
  </g>
  <g class="st14">
    <g class="st14">
      <g class="st14">
        <g class="st14">
          <g class="st14">
            <text class="st2" transform="translate(1618.8 1060.9)"><tspan x="0" y="0">WISCONSIN</tspan></text>
          </g>
        </g>
      </g>
    </g>
  </g>
  <g class="st14">
    <g class="st14">
      <g class="st14">
        <g class="st14">
          <g class="st14">
            <text class="st24" transform="translate(1892.2 1049.7) scale(.8 1)"><tspan x="0" y="0">VIRGINIA</tspan></text>
          </g>
        </g>
      </g>
    </g>
  </g>
  <g class="st14">
    <g class="st14">
      <g class="st14">
        <g class="st14">
          <g class="st14">
            <text class="st0" transform="translate(818.3 747.4)"><tspan x="0" y="0">BANNED PENDING INVESTIGATION</tspan></text>
          </g>
        </g>
      </g>
    </g>
  </g>
  <g class="st14">
    <g class="st14">
      <g class="st14">
        <g class="st14">
          <g class="st14">
            <text class="st0" transform="translate(781.8 1222.5)"><tspan x="0" y="0">BANNED</tspan></text>
          </g>
        </g>
      </g>
    </g>
  </g>
  <g class="st14">
    <g class="st14">
      <g class="st14">
        <g class="st14">
          <g class="st14">
            <text class="st0" transform="translate(923.1 1222.8)"><tspan x="0" y="0">BANNED BY RESTRICTION</tspan></text>
          </g>
        </g>
      </g>
    </g>
  </g>
  <g class="st14">
    <g class="st14">
      <g class="st14">
        <g class="st14">
          <g class="st14">
            <text class="st0" transform="translate(1854.3 676.8)"><tspan x="0" y="0">BANNED</tspan></text>
          </g>
        </g>
      </g>
    </g>
  </g>
  <g class="st14">
    <g class="st14">
      <g class="st14">
        <g class="st14">
          <g class="st14">
            <text class="st0" transform="translate(1562.1 993.2)"><tspan x="0" y="0">BANNED PENDING INVESTIGATION</tspan></text>
          </g>
        </g>
      </g>
    </g>
  </g>
  <g class="st14">
    <g class="st14">
      <g class="st14">
        <g class="st14">
          <g class="st14">
            <text class="st22" transform="translate(566.1 350.4)"><tspan x="0" y="0">4561</tspan></text>
          </g>
        </g>
      </g>
    </g>
  </g>
  <g class="st14">
    <g class="st14">
      <g class="st14">
        <g class="st14">
          <g class="st14">
            <text class="st19" transform="translate(1270.3 350.4)"><tspan x="0" y="0">3671</tspan></text>
          </g>
        </g>
      </g>
    </g>
  </g>
  <g class="st14">
    <g class="st14">
      <g class="st14">
        <g class="st14">
          <g class="st14">
            <text class="st21" transform="translate(1271.8 1124.7)"><tspan x="0" y="0">538</tspan></text>
          </g>
        </g>
      </g>
    </g>
  </g>
  <g class="st14">
    <g class="st14">
      <g class="st14">
        <g class="st14">
          <g class="st14">
            <text class="st10" transform="translate(1132.6 714.3) scale(1.1 1)"><tspan x="0" y="0">2416</tspan></text>
          </g>
        </g>
      </g>
    </g>
  </g>
  <g class="st14">
    <g class="st14">
      <g class="st14">
        <g class="st14">
          <g class="st14">
            <text class="st10" transform="translate(1159.2 1186.6)"><tspan x="0" y="0">988</tspan></text>
          </g>
        </g>
      </g>
    </g>
  </g>
  <g class="st14">
    <g class="st14">
      <g class="st14">
        <g class="st14">
          <g class="st14">
            <text class="st10" transform="translate(811.2 1186.2) scale(1.1 1)"><tspan x="0" y="0">1157</tspan></text>
          </g>
        </g>
      </g>
    </g>
  </g>
  <g class="st14">
    <g class="st14">
      <g class="st14">
        <g class="st14">
          <g class="st14">
            <text class="st8" transform="translate(1890.6 640.6)"><tspan x="0" y="0">2182</tspan></text>
          </g>
        </g>
      </g>
    </g>
  </g>
  <g class="st14">
    <g class="st14">
      <g class="st14">
        <g class="st14">
          <g class="st14">
            <text class="st8" transform="translate(1884.1 956.1)"><tspan x="0" y="0">1470</tspan></text>
          </g>
        </g>
      </g>
    </g>
  </g>
  <g class="st14">
    <g class="st14">
      <g class="st14">
        <g class="st14">
          <g class="st14">
            <text class="st1" transform="translate(1565.9 1179.5)"><tspan x="0" y="0">90</tspan></text>
          </g>
        </g>
      </g>
    </g>
  </g>
  <g class="st14">
    <g class="st14">
      <g class="st14">
        <g class="st14">
          <g class="st14">
            <text class="st12" transform="translate(1568 1229.2)"><tspan x="0" y="0">14</tspan></text>
          </g>
        </g>
      </g>
    </g>
  </g>
  <g class="st14">
    <g class="st14">
      <g class="st14">
        <g class="st14">
          <g class="st14">
            <text class="st28" transform="translate(1662.9 1093.1)"><tspan x="0" y="0">408</tspan></text>
          </g>
        </g>
      </g>
    </g>
  </g>
  <g class="st14">
    <g class="st14">
      <g class="st14">
        <g class="st14">
          <g class="st14">
            <text class="st30" transform="translate(1729.3 1213.4)"><tspan x="0" y="0">238</tspan></text>
          </g>
        </g>
      </g>
    </g>
  </g>
  <g class="st14">
    <g class="st14">
      <g class="st14">
        <g class="st14">
          <g class="st14">
            <text class="st30" transform="translate(1848.3 1212.9) scale(.9 1)"><tspan x="0" y="0">68</tspan></text>
          </g>
        </g>
      </g>
    </g>
  </g>
  <g class="st14">
    <g class="st14">
      <g class="st14">
        <g class="st14">
          <g class="st14">
            <text class="st17" transform="translate(1474.7 1193)"><tspan x="0" y="0">434</tspan></text>
          </g>
        </g>
      </g>
    </g>
  </g>
  <g class="st14">
    <g class="st14">
      <g class="st14">
        <g class="st14">
          <g class="st14">
            <text class="st18" transform="translate(1430.8 1224.7)"><tspan x="0" y="0">BANNED</tspan></text>
          </g>
        </g>
      </g>
    </g>
  </g>
  <g class="st14">
    <g class="st14">
      <g class="st14">
        <g class="st14">
          <g class="st14">
            <text class="st30" transform="translate(1840.6 1128.3) scale(.9 1)"><tspan x="0" y="0">102</tspan></text>
          </g>
        </g>
      </g>
    </g>
  </g>
  <g class="st14">
    <g class="st14">
      <g class="st14">
        <g class="st14">
          <g class="st14">
            <text class="st31" transform="translate(1624.6 1228.2)"><tspan x="0" y="0">BANNED PENDING INVESTIGATION</tspan></text>
          </g>
        </g>
      </g>
    </g>
  </g>
  <g class="st14">
    <g class="st14">
      <g class="st14">
        <g class="st14">
          <g class="st14">
            <text class="st16" transform="translate(1824.6 1227.3) scale(.9 1)"><tspan x="0" y="0">BANNED</tspan></text>
          </g>
        </g>
      </g>
    </g>
  </g>
  <g class="st14">
    <g class="st14">
      <g class="st14">
        <g class="st14">
          <g class="st14">
            <text class="st23" transform="translate(1787.5 1140.8) scale(.9 1)"><tspan x="0" y="0">BANNED BY RESTRICTION</tspan></text>
          </g>
        </g>
      </g>
    </g>
  </g>
  <g class="st14">
    <g class="st14">
      <g class="st14">
        <g class="st14">
          <g class="st14">
            <text class="st6" transform="translate(1541.8 1189.9)"><tspan x="0" y="0">BANNED PENDING</tspan></text>
          </g>
        </g>
      </g>
    </g>
    <g class="st14">
      <g class="st14">
        <g class="st14">
          <g class="st14">
            <text class="st6" transform="translate(1549.2 1197.7)"><tspan x="0" y="0">INVESTIGATION</tspan></text>
          </g>
        </g>
      </g>
    </g>
  </g>
  <g class="st14">
    <g class="st14">
      <g class="st14">
        <g class="st14">
          <g class="st14">
            <text class="st20" transform="translate(1542.8 1228.4)"><tspan x="0" y="0">RESTRICTION</tspan></text>
          </g>
        </g>
      </g>
    </g>
  </g>
  <g class="st14">
    <g class="st14">
      <g class="st14">
        <g class="st14">
          <g class="st14">
            <text class="st32" transform="translate(1909.3 1071)"><tspan x="0" y="0">121</tspan></text>
          </g>
        </g>
      </g>
    </g>
  </g>
  <g class="st14">
    <g class="st14">
      <g class="st14">
        <g class="st14">
          <g class="st14">
            <text class="st7" transform="translate(1940.4 1228.1)"><tspan x="0" y="0">17</tspan></text>
          </g>
        </g>
      </g>
    </g>
  </g>
  <g class="st14">
    <g class="st14">
      <g class="st14">
        <g class="st14">
          <g class="st14">
            <text class="st26" transform="translate(1936.9 1183.7) scale(.9 1)"><tspan x="0" y="0">104</tspan></text>
          </g>
        </g>
      </g>
    </g>
  </g>
  <g class="st14">
    <g class="st14">
      <g class="st14">
        <g class="st14">
          <g class="st14">
            <text class="st25" transform="translate(1921.9 1197.3) scale(.9 1)"><tspan x="0" y="0">BANNED</tspan></text>
          </g>
        </g>
      </g>
    </g>
  </g>
  <g class="st14">
    <g class="st14">
      <text class="st5" transform="translate(921.2 102.8)"><tspan x="0" y="0">And The Gold Medal Goes To...</tspan></text>
    </g>
  </g>
  <g class="st14">
    <text class="st29" transform="translate(87.3 461.8)"><tspan x="0" y="0">Books</tspan></text>
    <text class="st29" transform="translate(151.6 461.8)"><tspan x="0" y="0"> </tspan></text>
    <text class="st29" transform="translate(157.5 461.8)"><tspan x="0" y="0">are</tspan></text>
    <text class="st29" transform="translate(190.1 461.8)"><tspan x="0" y="0"> </tspan></text>
    <text class="st29" transform="translate(195.9 461.8)"><tspan x="0" y="0">removed</tspan></text>
    <text class="st29" transform="translate(285.8 461.8)"><tspan x="0" y="0"> </tspan></text>
    <text class="st29" transform="translate(291.6 461.8)"><tspan x="0" y="0">when</tspan></text>
    <text class="st29" transform="translate(346.7 461.8)"><tspan x="0" y="0"> </tspan></text>
    <text class="st29" transform="translate(352.5 461.8)"><tspan x="0" y="0">challenged, </tspan></text>
    <text class="st29" transform="translate(87.3 489.5)"><tspan x="0" y="0">which</tspan></text>
    <text class="st13" transform="translate(147.8 489.5)"><tspan x="0" y="0"> </tspan></text>
    <text class="st29" transform="translate(159.5 489.5)"><tspan x="0" y="0">is</tspan></text>
    <text class="st13" transform="translate(177 489.5)"><tspan x="0" y="0"> </tspan></text>
    <text class="st29" transform="translate(188.8 489.5)"><tspan x="0" y="0">contrary</tspan></text>
    <text class="st13" transform="translate(273.4 489.5)"><tspan x="0" y="0"> </tspan></text>
    <text class="st29" transform="translate(285.2 489.5)"><tspan x="0" y="0">to</tspan></text>
    <text class="st13" transform="translate(305.9 489.5)"><tspan x="0" y="0"> </tspan></text>
    <text class="st29" transform="translate(317.6 489.5)"><tspan x="0" y="0">best</tspan></text>
    <text class="st13" transform="translate(362.3 489.5)"><tspan x="0" y="0"> </tspan></text>
    <text class="st29" transform="translate(374 489.5)"><tspan x="0" y="0">practices </tspan></text>
    <text class="st29" transform="translate(87.3 517.2)"><tspan x="0" y="0">prescribed</tspan></text>
    <text class="st9" transform="translate(195.9 517.2)"><tspan x="0" y="0"> </tspan></text>
    <text class="st29" transform="translate(205.7 517.2)"><tspan x="0" y="0">by</tspan></text>
    <text class="st9" transform="translate(229.6 517.2)"><tspan x="0" y="0"> </tspan></text>
    <text class="st29" transform="translate(239.4 517.2)"><tspan x="0" y="0">the</tspan></text>
    <text class="st9" transform="translate(271.9 517.2)"><tspan x="0" y="0"> </tspan></text>
    <text class="st29" transform="translate(281.7 517.2)"><tspan x="0" y="0">National</tspan></text>
    <text class="st9" transform="translate(368 517.2)"><tspan x="0" y="0"> </tspan></text>
    <text class="st29" transform="translate(377.8 517.2)"><tspan x="0" y="0">Coalition </tspan></text>
    <text class="st29" transform="translate(87.3 544.9)"><tspan x="0" y="0">against</tspan></text>
    <text class="st9" transform="translate(163.2 544.9)"><tspan x="0" y="0"> </tspan></text>
    <text class="st29" transform="translate(173.5 544.9)"><tspan x="0" y="0">Censorship</tspan></text>
    <text class="st9" transform="translate(289.6 544.9)"><tspan x="0" y="0"> </tspan></text>
    <text class="st29" transform="translate(299.9 544.9)"><tspan x="0" y="0">(NCAC)</tspan></text>
    <text class="st9" transform="translate(377.4 544.9)"><tspan x="0" y="0"> </tspan></text>
    <text class="st29" transform="translate(387.7 544.9)"><tspan x="0" y="0">and</tspan></text>
    <text class="st9" transform="translate(426 544.9)"><tspan x="0" y="0"> </tspan></text>
    <text class="st29" transform="translate(436.3 544.9)"><tspan x="0" y="0">the </tspan></text>
    <text class="st29" transform="translate(87.3 572.7)"><tspan x="0" y="0">American</tspan></text>
    <text class="st9" transform="translate(185.7 572.7)"><tspan x="0" y="0"> </tspan></text>
    <text class="st29" transform="translate(196.7 572.7)"><tspan x="0" y="0">Library</tspan></text>
    <text class="st9" transform="translate(266.8 572.7)"><tspan x="0" y="0"> </tspan></text>
    <text class="st29" transform="translate(277.9 572.7)"><tspan x="0" y="0">Association</tspan></text>
    <text class="st9" transform="translate(399.3 572.7)"><tspan x="0" y="0"> </tspan></text>
    <text class="st29" transform="translate(410.3 572.7)"><tspan x="0" y="0">(ALA) </tspan></text>
    <text class="st29" transform="translate(87.3 600.4)"><tspan x="0" y="0">which</tspan></text>
    <text class="st29" transform="translate(147.8 600.4)"><tspan x="0" y="0"> </tspan></text>
    <text class="st29" transform="translate(152.9 600.4)"><tspan x="0" y="0">state</tspan></text>
    <text class="st29" transform="translate(204.7 600.4)"><tspan x="0" y="0"> </tspan></text>
    <text class="st29" transform="translate(209.8 600.4)"><tspan x="0" y="0">that</tspan></text>
    <text class="st29" transform="translate(250.2 600.4)"><tspan x="0" y="0"> </tspan></text>
    <text class="st29" transform="translate(255.3 600.4)"><tspan x="0" y="0">books</tspan></text>
    <text class="st29" transform="translate(318.2 600.4)"><tspan x="0" y="0"> </tspan></text>
    <text class="st29" transform="translate(323.3 600.4)"><tspan x="0" y="0">should</tspan></text>
    <text class="st29" transform="translate(392.5 600.4)"><tspan x="0" y="0"> </tspan></text>
    <text class="st29" transform="translate(397.6 600.4)"><tspan x="0" y="0">remain </tspan></text>
    <text class="st29" transform="translate(87.3 628.1)"><tspan x="0" y="0">in</tspan></text>
    <text class="st11" transform="translate(105.6 628.1)"><tspan x="0" y="0"> </tspan></text>
    <text class="st29" transform="translate(126.2 628.1)"><tspan x="0" y="0">circulation</tspan></text>
    <text class="st11" transform="translate(233.7 628.1)"><tspan x="0" y="0"> </tspan></text>
    <text class="st29" transform="translate(254.2 628.1)"><tspan x="0" y="0">during</tspan></text>
    <text class="st11" transform="translate(319.1 628.1)"><tspan x="0" y="0"> </tspan></text>
    <text class="st29" transform="translate(339.6 628.1)"><tspan x="0" y="0">an</tspan></text>
    <text class="st11" transform="translate(364.9 628.1)"><tspan x="0" y="0"> </tspan></text>
    <text class="st29" transform="translate(385.5 628.1)"><tspan x="0" y="0">ongoing </tspan></text>
    <text class="st29" transform="translate(87.3 655.8)"><tspan x="0" y="0">investigation.</tspan></text>
  </g>
  <g class="st4">
    <g class="st14">
      <text class="st27" transform="translate(1808.8 1311.5)"><tspan x="0" y="0">Chart by Anusha Subramanian</tspan></text>
    </g>
  </g>
  <g class="st4">
    <g class="st14">
      <text class="st27" transform="translate(1809.1 1280.4)"><tspan x="0" y="0">From PEN America’s </tspan></text>
      <text class="st27" transform="translate(1809.1 1293.6)"><tspan x="0" y="0">2023-2024 Index of School</tspan></text>
    </g>
  </g>
  <text class="st35" transform="translate(557.9 145.1)"><tspan x="0" y="0">Number of individual book ban incidents, by outcome, in the five states that challenged the most books in the </tspan><tspan x="510.7" y="33.6">2023-2024 academic year.</tspan></text>
  <text class="st36" transform="translate(890.2 1274.6)"><tspan x="0" y="0">Ex: Parental permission may be </tspan><tspan x="-.1" y="27.6">required to access certain titles</tspan></text>
</svg>